<?xml version="1.0" encoding="UTF-8"?>
<svg xmlns="http://www.w3.org/2000/svg" viewBox="0 0 607 120" width="607" height="120">

<g transform="translate(6.7194,0.7143) scale(0.346320,0.346320)"><path fill="#D6AD60" d="M 187.5 55.6875 L 67.804688 140.480469 L 67.804688 286.605469 L 173.136719 286.605469 L 173.136719 152.878906 L 115.683594 193.144531 L 115.683594 277.03125 L 77.378906 277.03125 L 77.378906 145.410156 L 187.5 67.417969 L 297.621094 145.410156 L 297.621094 277.03125 L 259.316406 277.03125 L 259.316406 159.632812 L 201.863281 119.367188 L 201.863281 286.605469 L 307.195312 286.605469 L 307.195312 140.480469 Z M 125.257812 198.125 L 163.5625 171.3125 L 163.5625 277.03125 L 125.257812 277.03125 Z M 249.742188 277.03125 L 211.4375 277.03125 L 211.4375 137.796875 L 249.742188 164.609375 Z M 249.742188 277.03125"/></g>
<g transform="translate(141.3766,81.0000) scale(0.036713,-0.036713)" fill="#D6AD60">
<path d="M10149 1142 c-21 -4 -23 -5 -43 -6 -15 -1 -30 -3 -41 -5 -3 -1 -12
-2 -19 -4 -8 -1 -18 -3 -22 -5 -5 -1 -11 -2 -15 -3 -4 -1 -9 -2 -12 -4 -3 -1
-8 -3 -11 -3 -3 -1 -8 -2 -11 -4 -3 -2 -7 -3 -9 -4 -3 0 -8 -2 -13 -4 -5 -2
-10 -4 -12 -5 -3 -1 -8 -3 -11 -5 -4 -1 -8 -3 -9 -3 -1 0 -4 -2 -7 -3 -3 -2
-6 -4 -7 -4 -1 0 -4 -2 -7 -3 -3 -2 -7 -4 -9 -5 -2 -1 -6 -3 -8 -5 -3 -1 -6
-3 -7 -4 -1 0 -4 -2 -6 -3 -2 -2 -6 -4 -8 -5 -2 -1 -5 -3 -7 -4 -2 -2 -4 -3
-4 -3 -1 0 -4 -2 -6 -4 -3 -2 -6 -4 -8 -5 -7 -5 -13 -9 -25 -19 -3 -2 -7 -6
-11 -8 -3 -2 -7 -6 -9 -7 -1 -2 -7 -7 -12 -11 -13 -12 -38 -38 -47 -49 -16
-19 -18 -22 -21 -27 -2 -2 -3 -4 -4 -4 -1 -1 -3 -3 -4 -6 -2 -3 -5 -7 -6 -8
-1 -1 -3 -5 -5 -8 -2 -3 -6 -9 -8 -13 -3 -4 -5 -7 -5 -8 0 0 -1 -2 -3 -4 -2
-3 -6 -11 -12 -21 -1 -3 -3 -7 -5 -9 -1 -1 -3 -5 -4 -9 -1 -3 -3 -7 -5 -10 -1
-2 -3 -6 -3 -9 -1 -2 -3 -6 -4 -8 -2 -2 -3 -6 -4 -9 -1 -3 -3 -8 -4 -11 -2 -3
-3 -6 -3 -7 0 -2 -1 -5 -3 -8 -1 -3 -4 -12 -6 -19 -1 -7 -4 -16 -5 -19 -1 -4
-3 -11 -3 -16 -1 -5 -3 -12 -4 -15 -1 -4 -3 -11 -3 -16 -1 -8 -4 -30 -5 -37
-2 -11 -3 -33 -3 -74 0 -48 0 -55 4 -83 2 -9 3 -21 4 -26 1 -5 2 -12 3 -16 2
-3 3 -10 4 -14 0 -3 2 -11 3 -15 2 -5 4 -15 6 -21 2 -6 4 -14 5 -17 2 -3 3 -7
3 -8 0 -2 1 -5 3 -8 2 -3 4 -8 4 -11 1 -3 3 -7 4 -9 1 -1 3 -5 3 -7 1 -3 3 -7
5 -10 1 -2 3 -7 4 -10 1 -3 3 -7 4 -8 2 -2 4 -6 5 -9 7 -12 10 -18 12 -21 2
-2 3 -4 3 -4 0 -1 2 -4 4 -7 2 -3 4 -6 4 -6 0 -1 8 -13 12 -18 3 -5 7 -10 11
-15 1 -3 4 -6 5 -8 2 -2 6 -6 8 -10 2 -3 6 -7 8 -9 8 -10 14 -16 16 -18 1 -1
6 -6 10 -11 5 -5 14 -13 20 -19 6 -6 13 -12 14 -13 2 -2 7 -6 18 -14 11 -9 16
-13 19 -14 1 -1 5 -4 9 -7 3 -2 7 -5 8 -6 2 -1 6 -3 8 -5 3 -2 7 -4 9 -5 3 -1
6 -3 8 -5 2 -2 5 -3 6 -3 0 0 3 -2 6 -3 2 -2 6 -4 8 -5 2 -1 5 -2 6 -3 2 -1 5
-3 8 -4 3 -2 7 -4 9 -5 2 -2 6 -3 7 -4 2 0 6 -2 10 -3 4 -2 8 -4 10 -4 1 -1 5
-3 9 -4 4 -2 9 -4 12 -5 3 -1 7 -2 10 -4 2 -1 8 -3 12 -4 4 -1 9 -3 11 -3 2
-1 7 -3 12 -4 5 -1 12 -3 16 -4 3 -1 9 -2 12 -3 3 -1 10 -2 17 -3 21 -4 37 -6
52 -7 18 -1 27 -2 41 -6 10 -2 13 -2 39 -2 15 0 28 0 29 1 3 3 15 5 55 8 7 1
16 2 20 3 4 0 14 2 22 4 7 1 17 3 22 4 4 2 11 4 16 5 5 0 11 2 13 4 3 1 8 3
12 3 4 1 9 3 10 4 1 1 6 3 10 4 5 1 9 3 10 4 2 0 6 2 11 4 4 1 9 3 11 4 1 1 5
3 9 4 3 1 7 3 9 5 2 1 6 3 8 3 2 1 5 3 6 4 2 1 5 3 7 4 3 1 7 3 9 5 2 2 5 3 6
3 0 0 3 2 5 3 3 2 6 5 8 6 2 0 7 4 11 7 4 3 10 7 13 9 3 1 5 3 5 4 0 0 1 1 3
2 7 4 23 18 42 37 8 8 9 9 9 12 -1 3 -7 9 -35 38 -13 13 -14 14 -22 6 -6 -6
-19 -18 -28 -24 -3 -2 -7 -6 -10 -8 -2 -2 -4 -4 -5 -4 0 0 -3 -2 -5 -4 -3 -2
-7 -5 -9 -6 -3 -2 -6 -4 -8 -5 -9 -7 -15 -10 -16 -10 0 0 -2 -1 -4 -2 -1 -2
-5 -4 -9 -6 -4 -1 -7 -3 -8 -4 -1 -1 -2 -2 -3 -2 0 0 -5 -2 -9 -5 -5 -2 -9 -4
-10 -4 -1 0 -5 -2 -9 -4 -5 -2 -11 -5 -14 -5 -4 -1 -8 -3 -11 -4 -2 -2 -7 -3
-10 -4 -4 -1 -9 -2 -11 -4 -3 -1 -8 -3 -13 -3 -5 -1 -11 -3 -13 -4 -2 -1 -8
-2 -12 -3 -8 -1 -12 -2 -31 -6 -8 -1 -21 -2 -40 -4 -14 -1 -83 -1 -93 0 -4 0
-12 1 -17 1 -5 1 -10 1 -10 1 -1 1 -4 1 -6 1 -3 1 -10 2 -16 3 -6 1 -15 3 -20
3 -5 1 -13 3 -17 4 -4 2 -10 4 -14 4 -4 1 -9 2 -11 4 -3 1 -8 2 -11 3 -3 1 -8
2 -11 4 -2 1 -8 3 -12 4 -4 1 -10 3 -13 5 -2 2 -7 3 -9 4 -3 1 -6 2 -8 4 -2 1
-6 3 -9 4 -3 1 -6 3 -8 4 -2 2 -5 3 -7 4 -2 1 -5 2 -6 3 -2 1 -5 3 -7 4 -3 1
-7 3 -10 5 -3 2 -6 4 -7 4 0 0 -2 1 -4 3 -2 1 -5 4 -7 5 -5 2 -12 7 -17 11 -2
1 -5 3 -6 4 -2 1 -6 5 -11 8 -4 4 -8 7 -9 8 -5 3 -29 25 -34 30 -3 4 -7 8 -9
10 -3 3 -10 11 -22 25 -6 7 -17 21 -20 26 -1 2 -3 5 -4 6 -2 2 -4 5 -4 7 -1 2
-4 6 -6 8 -1 2 -3 6 -3 7 -1 1 -2 3 -4 5 -1 2 -3 5 -5 8 -1 3 -3 6 -3 7 -1 0
-2 3 -4 7 -2 3 -4 7 -5 9 -1 1 -3 4 -3 7 -1 3 -3 6 -4 8 -1 1 -3 4 -4 7 -1 3
-3 8 -4 12 -2 4 -4 10 -5 13 -1 4 -3 9 -4 11 -1 1 -3 7 -3 11 -1 4 -3 10 -5
13 -1 2 -2 7 -3 10 0 5 -1 7 -5 24 -2 7 -5 33 -8 58 -4 38 -3 91 4 136 1 7 2
14 2 16 0 2 1 7 3 13 2 6 3 14 4 18 1 4 2 10 4 14 2 3 3 9 4 12 0 2 2 8 4 11
1 4 3 8 3 9 0 1 2 7 5 14 3 6 5 13 6 14 0 1 1 4 2 5 1 1 3 5 4 8 1 4 3 7 4 8
0 1 2 4 4 7 6 12 11 21 14 25 1 1 2 3 2 4 0 0 1 2 3 5 1 2 4 5 4 7 2 3 11 16
14 19 0 1 2 2 2 3 2 3 9 13 14 19 2 2 5 6 7 8 6 7 27 30 34 36 4 3 8 7 10 9 8
8 11 10 14 12 2 2 6 5 10 9 4 3 9 6 11 7 1 1 3 3 5 4 1 1 3 3 4 4 2 0 5 3 8 5
2 2 5 4 7 4 1 0 3 2 5 3 1 2 4 4 6 4 2 1 5 3 7 4 1 2 4 4 7 5 2 0 5 2 7 4 2 1
5 3 8 3 2 1 5 3 7 4 2 2 6 3 8 4 2 1 6 2 8 4 2 2 7 3 9 4 2 1 6 2 9 4 2 1 8 3
12 4 5 2 11 4 13 5 2 1 7 3 12 4 4 1 9 3 12 4 2 1 7 2 10 3 4 1 10 2 14 4 4 1
12 3 17 3 11 2 24 4 30 6 2 0 10 1 16 2 6 1 16 1 21 2 5 0 29 1 52 1 47 -1 63
-2 90 -7 9 -2 19 -3 23 -4 5 -1 10 -2 13 -3 2 -1 8 -3 12 -4 4 0 11 -2 14 -3
3 -2 8 -4 12 -5 3 0 8 -2 10 -3 2 -1 7 -3 12 -4 5 -2 11 -5 14 -6 3 -2 6 -3 7
-3 1 0 4 -2 7 -4 4 -1 7 -3 9 -4 1 0 4 -2 7 -3 2 -2 6 -4 8 -5 2 -1 5 -2 7 -4
2 -1 5 -3 7 -4 2 0 5 -3 7 -4 2 -2 4 -3 5 -3 1 0 6 -4 16 -11 1 -1 5 -4 8 -6
3 -1 5 -3 5 -4 0 0 1 -1 3 -2 6 -4 31 -25 36 -31 4 -6 6 -5 22 12 29 29 32 33
32 35 0 3 -5 8 -22 24 -13 11 -31 27 -36 30 -2 0 -4 2 -6 4 -1 1 -4 3 -6 4 -2
1 -4 3 -5 4 -1 1 -4 2 -5 3 -2 1 -5 3 -7 4 -2 2 -6 4 -8 5 -2 1 -6 3 -7 5 -2
1 -5 2 -6 3 -2 0 -5 2 -8 4 -2 1 -6 4 -8 4 -2 1 -5 2 -6 3 -2 1 -6 3 -9 5 -4
1 -7 3 -8 3 -2 1 -6 3 -9 4 -4 1 -10 3 -13 5 -3 1 -9 3 -12 4 -4 1 -9 3 -11 4
-1 1 -6 3 -10 4 -3 0 -9 2 -12 3 -3 2 -8 3 -12 4 -4 1 -11 2 -16 4 -10 3 -16
4 -45 9 -18 3 -18 3 -27 4 -5 0 -14 1 -20 1 -11 1 -15 2 -24 3 -1 1 -3 2 -5 2
-3 3 -53 3 -63 0z"/>
<path d="M11459 1143 c-5 -3 -22 -5 -47 -7 -9 -1 -21 -2 -27 -3 -36 -6 -42 -7
-52 -11 -4 -1 -10 -2 -14 -3 -4 -1 -8 -2 -10 -3 -1 -1 -6 -3 -11 -4 -4 -1 -9
-3 -11 -4 -2 -2 -5 -3 -7 -3 -3 -1 -14 -6 -25 -12 -2 -1 -7 -3 -11 -5 -3 -2
-6 -3 -6 -4 -1 -1 -4 -2 -7 -4 -3 -2 -6 -4 -7 -4 -1 -1 -3 -3 -6 -5 -2 -1 -7
-4 -10 -7 -3 -2 -7 -5 -9 -7 -10 -6 -32 -29 -42 -41 -8 -10 -17 -23 -21 -30
-1 -2 -3 -6 -5 -7 -1 -2 -2 -6 -3 -8 -1 -2 -3 -7 -5 -9 -1 -2 -3 -6 -3 -7 -1
-2 -2 -6 -4 -9 -2 -3 -4 -8 -4 -11 -1 -3 -2 -8 -4 -10 -1 -3 -2 -8 -3 -11 -1
-4 -2 -12 -4 -18 -3 -17 -4 -34 -4 -64 1 -30 1 -33 4 -45 1 -5 3 -13 4 -18 0
-6 2 -13 3 -15 2 -3 3 -8 4 -10 1 -3 3 -8 5 -12 1 -3 3 -7 3 -8 0 -1 1 -3 3
-5 1 -2 3 -6 4 -9 3 -5 11 -17 15 -22 12 -14 33 -35 40 -40 2 -2 4 -3 4 -4 0
0 2 -2 5 -4 7 -5 14 -10 17 -12 1 -1 3 -3 5 -3 2 -1 5 -4 8 -6 2 -1 5 -3 5 -3
1 0 4 -2 7 -3 2 -2 6 -4 7 -5 1 0 6 -2 11 -5 5 -2 9 -4 10 -4 1 0 4 -2 8 -3 3
-2 7 -4 8 -4 2 0 6 -2 10 -3 3 -2 8 -4 11 -5 2 0 6 -2 9 -3 3 -1 8 -3 11 -4 3
-1 10 -3 17 -5 6 -2 12 -4 15 -4 2 -1 6 -2 10 -4 4 -2 10 -3 14 -4 3 -1 9 -2
13 -4 3 -1 8 -3 10 -3 3 -1 9 -2 14 -4 5 -2 14 -4 20 -5 5 -1 16 -4 23 -5 7
-2 14 -4 15 -4 1 0 6 -1 11 -3 5 -2 14 -4 19 -4 4 -1 11 -3 13 -4 3 -1 9 -3
13 -4 5 0 11 -2 14 -4 4 -1 10 -3 15 -3 4 -1 12 -3 16 -5 5 -1 12 -4 17 -5 4
0 9 -2 11 -3 2 -1 7 -3 11 -4 4 0 10 -2 12 -4 3 -1 8 -3 11 -4 3 0 9 -2 12 -4
3 -2 7 -3 7 -3 1 0 5 -2 8 -3 4 -2 9 -5 12 -5 3 -1 6 -3 9 -5 2 -2 4 -3 5 -3
0 0 4 -2 8 -4 3 -3 7 -5 7 -5 1 0 3 -1 5 -3 2 -2 5 -4 7 -5 2 -1 4 -3 5 -4 1
0 4 -3 6 -4 6 -4 27 -23 33 -29 4 -6 12 -16 12 -17 0 0 2 -3 4 -6 2 -3 4 -8 5
-10 1 -2 2 -5 4 -7 1 -2 3 -7 3 -10 1 -4 3 -9 4 -11 5 -9 8 -52 6 -73 -2 -23
-3 -31 -6 -36 -1 -3 -3 -8 -3 -12 -1 -3 -3 -8 -4 -10 -2 -3 -3 -7 -4 -9 -1 -3
-3 -6 -4 -7 0 -1 -2 -4 -4 -7 -5 -10 -14 -21 -24 -33 -13 -13 -16 -16 -34 -29
-2 -2 -6 -5 -8 -6 -2 -1 -5 -3 -7 -4 -1 -2 -5 -4 -7 -5 -3 -1 -5 -2 -5 -3 -1
0 -4 -2 -8 -4 -3 -1 -8 -3 -10 -5 -2 -1 -6 -2 -10 -3 -3 -1 -7 -3 -9 -4 -3 -2
-8 -3 -12 -4 -5 -1 -10 -3 -12 -4 -2 -1 -9 -3 -16 -4 -6 -1 -15 -3 -18 -4 -8
-2 -34 -5 -50 -7 -5 0 -13 -1 -17 -1 -4 -1 -22 -1 -39 -2 -30 0 -35 0 -61 2
-27 3 -55 6 -59 8 -3 1 -15 3 -24 4 -5 1 -11 3 -14 4 -2 1 -8 3 -13 4 -5 0
-10 2 -13 3 -2 2 -7 3 -10 4 -4 1 -9 2 -12 4 -3 1 -9 3 -13 4 -4 2 -10 4 -13
5 -2 2 -7 3 -9 4 -2 1 -6 2 -8 4 -3 1 -7 3 -10 4 -3 1 -6 3 -7 4 -2 1 -5 3 -8
4 -3 1 -6 3 -7 3 0 1 -3 3 -6 4 -4 2 -8 4 -10 5 -1 2 -4 3 -6 4 -2 1 -4 2 -5
3 -1 1 -4 3 -6 4 -2 1 -5 3 -6 4 -1 1 -4 3 -7 5 -3 2 -8 6 -10 8 -3 2 -8 6
-11 8 -3 2 -10 9 -17 16 -11 11 -14 12 -18 10 -1 0 -2 -2 -3 -4 -1 -2 -3 -6
-4 -8 -2 -2 -4 -6 -5 -7 -1 -2 -3 -5 -4 -7 -1 -2 -3 -5 -4 -7 -1 -2 -2 -4 -3
-6 -5 -6 -10 -14 -9 -16 1 -4 25 -27 40 -38 4 -3 9 -7 12 -9 2 -2 5 -4 5 -4 1
0 2 -1 4 -3 2 -1 5 -4 7 -5 2 0 5 -3 7 -4 2 -2 4 -3 5 -3 0 0 3 -1 6 -3 5 -4
12 -8 23 -13 4 -2 7 -4 9 -5 1 -1 4 -3 7 -3 2 -1 6 -3 8 -5 2 -1 6 -3 9 -4 3
-1 7 -3 10 -4 2 -1 7 -3 10 -4 4 -1 9 -3 10 -4 2 -1 7 -3 11 -4 4 -1 9 -3 11
-4 2 -1 7 -3 10 -4 4 0 10 -2 13 -4 3 -1 8 -2 12 -3 3 -1 10 -2 16 -4 6 -2 17
-4 25 -5 8 -2 18 -4 23 -4 8 -2 22 -3 45 -5 18 -1 26 -3 31 -5 4 -2 6 -2 38
-2 32 1 35 1 40 3 6 2 25 4 48 5 5 1 15 2 21 3 31 5 42 7 49 10 4 1 10 3 14 4
5 0 10 2 13 3 2 2 7 4 11 4 4 1 8 3 9 4 2 1 5 3 9 4 3 0 7 2 10 4 2 1 7 3 10
4 3 1 7 3 10 5 2 1 6 3 8 4 2 1 4 2 5 3 1 1 4 2 6 3 3 2 6 4 8 5 1 1 5 4 8 5
9 6 16 11 16 12 0 0 1 1 3 2 4 3 21 18 28 25 16 17 31 38 38 53 2 2 4 6 5 8 2
2 3 4 3 4 0 1 2 5 4 10 9 18 19 52 20 69 1 4 2 15 3 24 1 9 1 20 1 25 -1 18
-3 40 -4 48 -2 11 -9 38 -11 43 -2 2 -4 7 -5 10 0 3 -3 7 -4 10 -2 2 -3 5 -3
6 -1 1 -2 4 -4 6 -1 2 -4 6 -5 8 -2 3 -3 5 -4 5 0 0 -1 1 -2 3 -3 4 -14 17
-21 24 -5 5 -30 27 -36 32 -3 2 -7 5 -9 7 -2 1 -7 4 -9 5 -3 2 -5 3 -5 4 0 0
-2 2 -5 3 -3 2 -6 4 -8 5 -1 1 -3 3 -6 3 -2 1 -6 3 -8 5 -3 2 -6 3 -8 4 -1 0
-5 2 -8 3 -4 2 -9 5 -12 5 -4 1 -9 3 -12 5 -4 2 -8 3 -9 3 -2 0 -6 1 -9 3 -4
2 -9 4 -12 5 -4 0 -9 2 -12 3 -2 2 -7 3 -10 4 -4 1 -11 3 -16 5 -6 2 -14 4
-18 4 -3 1 -9 3 -13 4 -3 2 -8 3 -12 4 -3 1 -9 2 -13 4 -4 2 -10 3 -12 3 -3 1
-10 2 -15 4 -5 2 -14 4 -20 5 -6 2 -16 4 -22 6 -6 1 -13 3 -16 3 -2 1 -7 2
-10 3 -4 2 -9 3 -12 4 -6 0 -12 2 -17 4 -2 1 -7 3 -12 4 -4 0 -10 2 -13 3 -4
2 -9 3 -12 4 -3 1 -10 3 -16 4 -5 2 -13 5 -17 6 -3 0 -9 2 -11 4 -3 1 -7 3
-10 3 -3 1 -7 2 -10 4 -2 1 -6 2 -9 3 -2 1 -7 3 -10 4 -2 2 -7 4 -11 5 -3 1
-7 3 -9 4 -1 1 -5 3 -7 4 -3 1 -6 3 -7 4 -2 1 -5 3 -8 4 -6 3 -14 9 -17 12 -2
1 -4 3 -5 4 -10 6 -33 27 -42 38 -2 4 -6 8 -7 9 -4 5 -13 23 -17 35 -2 5 -5
14 -5 19 -1 4 -3 12 -4 16 -2 11 -2 52 0 62 1 4 3 11 4 16 0 5 2 12 3 16 4 11
9 25 11 28 1 1 2 4 3 6 1 2 3 5 5 8 1 2 3 5 3 6 0 0 1 2 3 3 1 2 3 4 4 6 7 12
32 37 46 45 2 2 4 4 4 4 0 0 1 1 3 2 1 1 5 3 8 5 2 2 6 4 7 5 1 0 5 2 7 4 3 1
7 3 9 4 2 1 5 2 8 4 2 1 6 3 9 4 3 0 7 2 10 4 2 1 7 3 11 3 3 1 9 3 12 4 2 2
7 3 11 4 3 0 10 1 17 3 6 2 13 3 16 3 3 1 7 1 8 2 2 0 6 0 15 1 2 1 8 1 13 2
5 0 13 1 17 1 12 2 74 2 90 0 6 -1 16 -2 21 -3 9 0 26 -3 48 -7 6 -2 13 -3 14
-3 1 0 5 -1 9 -3 4 -1 11 -3 15 -4 4 -1 9 -2 12 -4 3 -1 8 -3 12 -4 3 0 8 -2
10 -3 2 -1 6 -3 10 -4 4 0 9 -3 13 -4 3 -2 8 -4 11 -5 3 -1 7 -3 9 -4 2 -1 5
-3 8 -4 3 0 6 -2 8 -4 1 -1 5 -3 7 -3 2 -1 5 -3 7 -4 1 -1 5 -3 9 -4 3 -2 6
-4 8 -5 1 -1 3 -3 5 -3 2 -1 5 -3 7 -4 1 -2 4 -4 7 -5 2 -1 5 -3 6 -4 4 -5 7
-4 11 4 2 4 5 9 5 12 1 2 3 6 4 8 2 2 3 5 4 8 0 2 2 5 3 7 2 2 3 4 3 5 0 0 1
3 3 7 2 3 3 6 3 7 0 2 -6 8 -10 10 -2 0 -5 2 -6 4 -2 1 -5 3 -7 4 -2 0 -4 2
-6 3 -1 1 -5 3 -8 5 -4 2 -7 3 -7 4 -1 0 -4 2 -7 3 -3 1 -7 3 -8 5 -2 1 -6 3
-9 4 -3 1 -6 3 -7 4 -1 0 -5 2 -9 3 -4 2 -8 4 -9 4 -2 1 -7 3 -11 5 -5 1 -10
3 -11 4 -1 1 -6 3 -10 4 -5 1 -10 3 -11 4 -2 1 -7 3 -11 4 -5 1 -9 3 -11 3 -1
1 -6 3 -11 3 -5 1 -12 3 -16 4 -9 3 -25 6 -35 8 -3 0 -9 1 -14 2 -5 1 -15 2
-22 3 -12 1 -35 4 -41 5 -1 0 -5 0 -8 1 -3 0 -7 1 -9 2 -2 1 -9 1 -28 1 -14 0
-26 0 -27 -1z"/>
<path d="M10 1133 c-1 -1 -4 -3 -4 -4 -2 -2 -2 -53 -2 -557 0 -492 0 -555 1
-557 1 -1 3 -2 4 -3 1 -1 14 -1 36 -1 31 0 33 0 35 2 2 2 2 12 2 470 0 257 0
469 -1 470 0 3 2 8 4 8 2 0 11 -10 11 -12 0 -1 2 -5 4 -8 2 -4 4 -8 4 -8 0 0
1 -2 3 -4 3 -5 7 -13 13 -24 2 -4 4 -7 5 -8 1 0 2 -3 3 -5 2 -3 3 -6 4 -6 1
-1 2 -4 4 -7 1 -3 4 -8 6 -10 7 -13 11 -20 11 -21 0 0 1 -2 2 -4 2 -1 4 -4 5
-7 1 -2 3 -6 5 -8 2 -2 3 -5 3 -6 0 0 2 -3 4 -6 1 -3 3 -5 3 -6 0 0 2 -4 4 -8
3 -3 5 -7 5 -8 0 0 2 -4 5 -7 2 -4 4 -8 4 -8 0 -1 1 -3 2 -4 3 -3 5 -8 13 -22
2 -4 4 -8 6 -10 1 -1 2 -3 2 -4 0 0 2 -3 4 -6 2 -3 4 -7 5 -9 0 -2 2 -4 3 -5
2 -2 5 -8 11 -20 2 -4 5 -8 6 -10 1 -2 5 -8 7 -12 2 -4 6 -11 8 -14 2 -3 4 -6
4 -6 0 -1 2 -4 4 -7 2 -4 4 -7 4 -8 0 0 2 -4 5 -7 2 -4 4 -8 4 -8 0 -1 1 -3 2
-4 2 -2 4 -6 6 -9 5 -10 9 -17 12 -22 2 -2 3 -4 3 -5 0 0 2 -4 5 -8 2 -3 4 -7
4 -8 0 0 1 -2 3 -4 1 -1 3 -5 4 -7 0 -2 2 -5 3 -6 2 -2 4 -6 5 -8 2 -3 5 -9 8
-14 3 -5 6 -11 8 -13 1 -3 3 -7 5 -9 2 -2 3 -5 3 -6 0 0 2 -3 4 -7 2 -3 4 -6
4 -7 0 0 1 -3 3 -5 2 -2 4 -6 6 -10 4 -8 8 -14 11 -18 1 -3 3 -6 4 -8 1 -2 3
-5 4 -7 2 -2 4 -5 4 -7 1 -2 3 -5 4 -7 2 -1 3 -4 4 -6 1 -2 3 -5 4 -7 2 -3 4
-7 5 -9 1 -3 2 -5 3 -6 1 0 2 -2 4 -5 1 -3 3 -7 4 -8 1 -1 3 -4 4 -6 1 -3 3
-7 5 -9 2 -2 3 -5 3 -6 0 0 2 -3 4 -6 1 -3 3 -6 4 -7 0 -2 3 -5 5 -9 2 -3 4
-7 4 -7 0 -1 1 -3 2 -4 2 -2 4 -6 6 -9 1 -3 3 -6 3 -6 0 0 2 -3 4 -7 7 -13 12
-21 13 -23 1 -1 3 -3 3 -5 1 -3 3 -5 4 -6 1 -2 3 -5 4 -7 1 -3 3 -6 4 -7 1 -1
3 -5 5 -8 2 -4 5 -10 7 -14 3 -4 6 -10 7 -12 2 -2 4 -7 6 -10 2 -3 4 -6 4 -6
0 -1 1 -3 3 -5 1 -2 3 -5 4 -8 1 -2 3 -6 5 -9 2 -3 4 -6 4 -7 0 0 1 -2 2 -4 2
-1 4 -5 5 -8 2 -3 5 -7 7 -9 3 -4 3 -4 21 -4 17 0 17 0 21 4 2 2 5 7 7 10 1 3
3 6 4 8 1 1 3 3 4 6 0 2 2 4 3 5 1 1 3 5 4 8 2 3 5 8 6 11 2 2 5 7 7 11 11 19
13 22 15 25 2 4 7 13 12 22 2 4 4 8 6 10 1 1 3 4 3 6 1 3 3 5 4 7 1 1 3 3 4 5
0 3 2 6 4 8 2 2 3 5 12 21 1 3 4 7 4 8 1 1 3 4 5 8 6 10 9 17 11 19 1 1 2 2 2
4 1 1 2 4 4 7 2 2 5 7 6 10 2 3 3 6 4 7 1 0 2 3 4 6 1 3 3 6 4 8 1 1 3 3 4 5
0 3 2 6 4 7 1 2 3 5 4 8 1 2 3 6 5 8 2 3 3 6 4 7 0 2 1 4 2 5 3 4 7 11 12 21
2 3 4 6 5 7 0 1 2 4 4 7 8 15 11 20 13 23 2 3 3 5 3 5 0 1 1 4 3 6 2 2 4 6 5
9 2 2 4 6 5 8 2 3 3 5 3 5 0 1 2 4 4 7 2 4 4 7 4 8 0 0 1 3 3 5 2 2 4 6 5 8 1
2 3 6 4 7 1 1 3 5 5 8 7 14 9 18 11 20 1 1 3 4 4 6 1 3 3 7 5 9 2 2 3 5 3 5 0
1 1 4 3 6 2 2 4 6 5 7 0 2 2 6 4 9 2 3 4 6 4 7 0 0 1 2 2 4 2 1 4 6 6 10 2 3
6 9 8 13 2 4 5 10 7 13 2 4 4 7 5 8 1 0 2 3 3 5 2 3 4 7 5 9 2 2 3 4 3 5 0 0
2 3 4 7 2 3 4 6 4 7 0 0 2 4 5 8 2 3 4 7 4 8 0 0 1 3 3 5 2 2 4 6 5 9 1 2 3 4
3 5 1 0 3 4 5 8 6 12 10 18 11 20 1 1 3 4 5 7 1 3 3 7 4 8 1 1 3 4 4 6 0 2 2
5 4 7 1 2 3 6 5 9 1 3 4 8 6 11 2 4 4 7 5 9 1 1 3 3 3 5 1 2 3 6 5 9 2 3 4 6
4 6 0 1 1 3 2 4 2 3 8 13 13 23 2 3 4 6 4 7 1 1 3 4 5 8 2 3 3 6 4 6 0 1 2 3
3 7 2 3 4 6 5 8 2 2 4 6 5 8 1 2 4 8 6 12 4 7 10 13 13 13 1 0 1 -27 2 -268 0
-147 0 -310 0 -361 1 -52 1 -145 1 -207 0 -108 0 -113 2 -115 2 -2 2 -2 36 -2
34 0 38 1 40 4 0 2 0 78 0 529 -1 491 -2 584 -4 587 -1 2 2 2 -33 2 -28 0 -28
0 -33 -5 -2 -2 -5 -7 -6 -9 -2 -3 -4 -7 -5 -9 -2 -2 -3 -4 -3 -5 0 0 -2 -4 -4
-8 -3 -3 -5 -7 -5 -8 0 0 -1 -2 -3 -4 -1 -2 -4 -6 -6 -10 -2 -4 -5 -9 -7 -13
-2 -4 -6 -9 -8 -13 -6 -12 -11 -19 -13 -23 -2 -4 -4 -8 -10 -18 -2 -4 -4 -7
-5 -9 -1 -1 -3 -3 -4 -5 0 -2 -3 -6 -5 -9 -1 -3 -3 -6 -3 -6 0 -1 -1 -4 -3 -6
-2 -2 -4 -6 -5 -8 -1 -3 -3 -7 -5 -9 -2 -2 -3 -5 -3 -6 0 0 -1 -2 -3 -4 -3 -5
-7 -12 -12 -21 -2 -4 -4 -7 -5 -8 0 -1 -2 -4 -4 -8 -7 -13 -10 -19 -12 -21 -1
-1 -3 -3 -4 -5 0 -3 -3 -6 -4 -9 -2 -2 -3 -4 -3 -5 0 0 -2 -4 -5 -8 -2 -3 -4
-7 -4 -8 0 0 -1 -2 -3 -5 -1 -2 -4 -6 -5 -9 -1 -2 -3 -5 -4 -6 -1 -2 -3 -5 -4
-7 -3 -5 -5 -9 -16 -28 -2 -4 -6 -10 -7 -13 -2 -3 -4 -7 -6 -9 -1 -1 -2 -3 -2
-4 0 0 -2 -4 -4 -8 -3 -3 -5 -7 -5 -7 0 -1 -2 -4 -4 -7 -2 -4 -4 -7 -4 -7 0
-1 -1 -3 -3 -6 -2 -2 -4 -6 -5 -9 -1 -2 -3 -5 -4 -6 -2 -2 -7 -11 -11 -19 -1
-3 -4 -7 -5 -10 -2 -3 -6 -8 -8 -13 -2 -4 -6 -11 -8 -14 -2 -3 -4 -6 -4 -7 0
0 -2 -3 -4 -7 -2 -3 -4 -6 -4 -6 0 -1 -2 -4 -4 -8 -2 -3 -4 -6 -4 -7 0 0 -2
-3 -3 -6 -2 -3 -5 -7 -5 -9 -1 -2 -3 -4 -4 -5 -1 -2 -3 -4 -4 -7 0 -2 -2 -4
-3 -5 -2 -2 -5 -8 -12 -22 -2 -4 -5 -8 -6 -10 -1 -2 -5 -8 -7 -12 -2 -4 -6
-10 -7 -13 -2 -2 -4 -6 -6 -9 -1 -3 -4 -8 -6 -11 -2 -4 -4 -8 -5 -9 -1 -1 -3
-4 -4 -7 -1 -2 -3 -5 -4 -7 -1 -1 -3 -3 -4 -6 0 -2 -2 -4 -3 -5 -1 -2 -8 -14
-12 -21 -1 -3 -4 -8 -6 -10 -1 -3 -3 -6 -4 -7 0 -1 -1 -4 -2 -5 -2 -2 -4 -6
-5 -8 -1 -2 -3 -6 -4 -7 -1 -1 -3 -5 -5 -8 -7 -14 -9 -18 -12 -20 -1 -2 -3 -5
-3 -7 -1 -3 -3 -5 -4 -7 -1 -1 -3 -3 -4 -5 0 -2 -3 -6 -5 -9 -1 -3 -3 -6 -3
-6 0 -1 -2 -4 -4 -7 -2 -4 -4 -7 -4 -7 0 -1 -2 -4 -4 -7 -2 -4 -4 -7 -4 -7 0
-1 -1 -4 -3 -6 -2 -2 -4 -6 -5 -9 -2 -2 -5 -8 -8 -12 -2 -4 -5 -10 -7 -14 -2
-4 -5 -8 -6 -10 -2 -2 -3 -4 -3 -4 0 -1 -2 -4 -4 -8 -4 -7 -7 -9 -10 -8 -1 1
-6 9 -10 17 -1 3 -4 7 -5 10 -2 3 -4 6 -4 6 0 1 -1 3 -2 5 -1 1 -4 4 -5 7 -1
3 -4 7 -5 10 -4 6 -10 16 -15 25 -3 5 -6 10 -8 13 -2 3 -4 7 -4 9 -1 1 -3 5
-5 7 -2 2 -3 5 -3 5 0 1 -1 4 -3 6 -2 2 -4 6 -5 9 -1 2 -3 5 -4 7 -2 2 -4 5
-4 7 -1 2 -3 6 -5 9 -2 3 -4 6 -4 6 0 1 -1 3 -3 5 -1 2 -3 5 -5 8 -3 6 -9 17
-16 28 -2 4 -5 10 -7 13 -1 2 -3 6 -4 8 -2 1 -3 4 -4 6 -1 1 -3 4 -4 7 -2 2
-3 5 -3 6 -1 1 -3 4 -4 7 -2 3 -5 7 -5 9 -1 2 -3 4 -4 5 -1 2 -3 5 -4 8 -2 3
-3 6 -4 6 -1 1 -3 4 -5 8 -7 14 -14 26 -20 35 -1 3 -3 5 -3 6 0 0 -2 3 -3 6
-2 2 -4 5 -4 7 -1 1 -3 5 -6 8 -2 4 -4 8 -4 8 0 1 -1 3 -3 6 -2 2 -4 6 -5 8
-1 2 -3 6 -5 8 -2 3 -3 6 -3 6 0 1 -2 3 -3 6 -2 3 -4 6 -4 6 0 1 -1 3 -2 4 -2
2 -4 7 -6 11 -7 12 -11 20 -14 22 -1 2 -2 4 -2 5 0 0 -2 3 -4 7 -2 3 -4 6 -4
7 0 0 -2 4 -4 7 -3 4 -5 8 -5 8 0 1 -2 4 -3 6 -2 3 -4 6 -4 6 0 1 -2 5 -4 8
-3 4 -5 8 -5 8 0 1 -2 3 -3 6 -2 3 -4 6 -5 7 0 1 -1 4 -3 6 -1 1 -3 5 -5 9 -2
3 -5 8 -6 11 -2 3 -4 7 -5 8 -1 1 -3 5 -4 7 -1 2 -3 6 -4 7 -1 1 -3 4 -4 6 -1
3 -3 7 -5 9 -2 2 -3 5 -3 5 0 1 -2 4 -4 8 -2 3 -4 6 -4 7 0 0 -2 4 -4 7 -3 4
-5 8 -5 9 0 0 -1 2 -3 4 -1 1 -3 5 -4 8 -1 2 -3 5 -3 5 -1 1 -8 13 -12 22 -2
3 -4 7 -6 8 -1 2 -2 4 -3 6 -1 2 -3 5 -5 8 -2 2 -3 5 -3 5 0 1 -1 3 -3 6 -1 2
-4 6 -6 10 -5 10 -9 17 -12 21 -1 1 -3 4 -3 6 -1 3 -3 5 -4 7 -1 1 -3 3 -4 6
0 2 -2 5 -3 7 -2 1 -4 5 -6 9 -6 10 -10 19 -12 22 -2 2 -5 7 -7 11 -2 5 -6 10
-7 12 -1 2 -4 6 -6 10 -5 10 -11 20 -12 22 -1 1 -3 3 -3 5 -1 3 -3 5 -4 7 -1
1 -3 3 -4 6 0 2 -2 5 -4 7 -1 1 -3 5 -5 8 -1 3 -4 8 -6 9 -4 4 -4 4 -29 4 -14
0 -26 0 -28 0 -1 1 -4 0 -6 0z"/>
<path d="M2196 1133 c-4 -1 -10 -10 -13 -18 -1 -3 -2 -6 -3 -7 -1 -1 -3 -4 -3
-7 -1 -3 -3 -6 -4 -8 -1 -2 -3 -5 -4 -9 -1 -3 -3 -7 -4 -8 -1 -2 -3 -7 -5 -11
-1 -3 -3 -8 -4 -10 -2 -3 -3 -6 -4 -8 -1 -3 -2 -6 -3 -7 -2 -2 -3 -6 -4 -9 -1
-3 -3 -7 -5 -9 -1 -2 -3 -5 -3 -7 -1 -3 -3 -7 -4 -10 -2 -2 -4 -7 -5 -11 -1
-3 -3 -7 -4 -9 -2 -2 -3 -6 -4 -8 -1 -3 -3 -7 -4 -9 -2 -2 -3 -4 -3 -5 0 -1
-2 -5 -4 -9 -2 -4 -4 -9 -4 -10 -1 -1 -3 -6 -5 -9 -2 -4 -4 -9 -5 -12 0 -2 -2
-6 -3 -8 -2 -2 -3 -6 -4 -9 -1 -3 -3 -6 -4 -7 -1 -2 -3 -4 -3 -6 -1 -2 -3 -7
-5 -10 -1 -4 -5 -12 -8 -18 -2 -6 -6 -14 -8 -18 -1 -4 -4 -9 -4 -11 -1 -2 -3
-6 -4 -8 -2 -2 -3 -5 -3 -6 -1 -1 -3 -6 -4 -9 -9 -18 -11 -23 -13 -27 0 -2 -2
-6 -4 -9 -1 -2 -3 -7 -4 -10 -1 -3 -3 -6 -4 -8 -1 -1 -3 -5 -4 -7 0 -3 -2 -7
-4 -10 -2 -2 -3 -5 -3 -6 0 -1 -2 -5 -4 -9 -2 -5 -4 -10 -5 -12 -1 -3 -2 -6
-4 -8 -1 -2 -3 -6 -4 -9 -1 -3 -3 -7 -4 -10 -2 -2 -3 -5 -4 -7 -1 -3 -2 -6 -3
-7 -1 -2 -3 -5 -4 -9 -1 -3 -3 -7 -5 -10 -1 -2 -3 -7 -4 -10 -1 -3 -3 -7 -4
-10 -2 -2 -4 -6 -5 -8 0 -3 -2 -7 -3 -9 -2 -1 -3 -5 -4 -6 0 -2 -1 -5 -3 -7
-1 -2 -3 -7 -4 -10 -1 -3 -3 -7 -4 -8 -1 -2 -3 -7 -4 -10 -2 -4 -4 -9 -5 -11
-2 -3 -3 -6 -4 -8 -1 -3 -2 -6 -4 -8 -1 -1 -3 -5 -4 -8 -1 -3 -2 -7 -4 -9 -1
-2 -2 -5 -3 -7 -1 -3 -2 -7 -4 -9 -2 -3 -4 -8 -5 -11 -1 -3 -3 -7 -4 -9 -1 -1
-3 -5 -4 -9 -1 -4 -3 -7 -4 -8 -1 -2 -3 -5 -4 -8 0 -3 -2 -7 -4 -9 -1 -2 -3
-5 -3 -8 -1 -2 -3 -7 -5 -11 -2 -4 -5 -9 -5 -12 -1 -3 -3 -5 -4 -6 0 -1 -2 -4
-3 -7 -1 -3 -2 -7 -4 -9 -1 -2 -3 -4 -3 -6 -1 -2 -3 -7 -4 -10 -7 -14 -13 -26
-13 -29 -1 -1 -3 -5 -5 -8 -1 -4 -3 -8 -3 -9 -1 -2 -2 -6 -4 -8 -2 -2 -3 -6
-4 -8 -1 -3 -2 -6 -3 -7 -1 -2 -3 -5 -4 -8 -1 -3 -3 -8 -4 -10 -2 -3 -3 -6 -3
-7 -1 -1 -3 -6 -5 -11 -2 -5 -6 -13 -9 -17 -2 -5 -4 -11 -5 -13 -1 -2 -2 -4
-2 -5 -1 -1 -3 -3 -4 -6 0 -3 -3 -8 -4 -11 -2 -3 -4 -8 -5 -11 -1 -3 -3 -7 -4
-9 -2 -2 -3 -6 -4 -8 -1 -2 -2 -6 -3 -7 -2 -2 -4 -6 -4 -9 -1 -3 -3 -7 -4 -8
-1 -2 -3 -5 -4 -8 -1 -3 -4 -9 -5 -12 -2 -4 -4 -7 -4 -8 0 -1 -2 -5 -4 -9 -2
-4 -4 -9 -4 -10 -1 -2 -2 -5 -4 -8 -2 -2 -3 -5 -3 -6 0 0 -2 -4 -4 -9 -5 -10
-14 -30 -14 -30 0 -1 -1 -4 -3 -7 -2 -4 -4 -9 -5 -12 -1 -2 -3 -5 -4 -6 0 -1
-2 -4 -3 -6 0 -3 -2 -7 -3 -9 -2 -2 -3 -5 -4 -8 -1 -3 -3 -7 -5 -10 -1 -3 -3
-7 -4 -9 -1 -7 -2 -7 42 -7 28 0 39 0 41 1 2 1 3 3 5 8 1 3 3 6 4 7 0 1 2 5 3
8 1 4 3 8 5 11 1 2 3 7 4 10 1 3 3 6 4 8 1 1 3 5 4 8 0 3 2 7 4 8 1 2 3 6 4 9
0 3 2 7 3 8 1 2 3 6 5 10 1 4 3 9 5 12 1 3 3 7 3 9 1 1 2 4 4 6 1 2 3 6 4 8 0
3 2 7 3 9 2 2 3 6 4 8 1 3 3 8 5 12 2 3 4 8 4 9 1 1 3 5 4 9 2 4 4 8 4 10 1 1
2 5 4 7 2 2 3 6 4 9 1 2 2 5 3 6 1 2 3 6 4 9 2 4 4 8 4 9 1 1 3 6 5 11 2 4 4
9 5 11 1 1 3 5 4 8 0 3 2 7 3 8 1 1 3 4 4 7 1 3 3 7 4 10 2 2 3 5 3 6 0 0 1 4
3 7 2 3 4 9 6 14 2 4 4 9 5 11 1 1 2 4 3 7 1 2 3 6 5 10 1 3 3 7 3 8 1 2 2 5
4 8 2 2 3 5 3 6 0 1 2 5 4 9 2 4 4 8 4 9 0 1 2 5 5 11 2 5 4 9 4 10 0 1 6 13
11 23 2 3 4 8 4 10 1 3 3 6 4 8 1 1 3 6 5 10 1 4 3 9 4 11 1 1 3 5 4 8 1 4 3
7 4 9 1 2 3 5 4 8 0 3 2 6 3 7 1 2 3 6 4 9 1 3 3 7 4 9 1 1 3 6 5 10 1 4 3 9
5 12 1 2 2 5 3 8 1 2 2 6 4 8 2 2 3 7 4 9 1 2 2 6 4 7 1 2 3 6 3 9 1 3 3 7 4
8 1 2 3 6 5 10 1 3 4 10 6 14 1 4 3 7 3 8 0 1 1 3 3 5 1 2 3 6 4 9 0 2 2 6 4
8 1 2 3 6 3 8 1 2 3 7 5 11 2 3 4 8 5 11 1 4 3 7 4 9 1 1 2 5 3 8 1 3 3 6 4 8
1 2 3 5 4 9 1 3 3 6 4 8 1 1 2 4 3 7 1 2 2 6 4 9 1 2 3 6 4 8 2 5 9 22 13 31
2 3 4 8 5 9 0 1 2 4 3 7 2 2 3 5 3 6 0 1 2 5 5 10 2 6 4 10 4 11 0 1 12 27 20
42 1 4 3 8 3 8 0 1 1 4 3 7 2 4 4 8 5 11 1 3 4 9 5 13 2 3 4 8 4 9 1 1 2 5 4
8 2 2 3 6 4 8 1 3 2 6 4 8 1 2 2 5 3 7 1 3 2 6 4 9 1 2 3 7 5 11 1 3 3 8 4 10
1 1 3 6 4 10 2 4 4 7 5 8 0 1 2 4 3 7 0 2 2 6 4 8 1 2 3 6 3 9 1 3 3 7 4 9 2
2 4 7 5 11 2 10 5 12 11 6 2 -2 4 -6 5 -9 1 -3 2 -8 4 -10 2 -2 3 -6 4 -8 1
-3 2 -6 4 -9 1 -2 3 -7 4 -10 1 -3 3 -7 5 -10 1 -2 3 -7 4 -10 1 -4 3 -7 4 -8
1 -2 2 -4 3 -5 0 -2 2 -6 3 -9 2 -4 4 -8 4 -9 1 -1 3 -5 4 -9 2 -4 5 -9 6 -11
1 -3 2 -7 4 -10 1 -2 3 -7 4 -10 1 -3 3 -6 4 -8 1 -1 2 -4 3 -6 1 -3 3 -7 4
-10 2 -3 4 -8 6 -11 1 -4 5 -11 7 -17 3 -7 6 -14 7 -17 2 -3 4 -8 6 -11 2 -4
3 -7 3 -8 0 -1 1 -3 2 -5 2 -2 4 -6 5 -8 1 -3 2 -7 4 -9 1 -3 3 -8 5 -11 1 -4
3 -8 4 -9 0 -2 2 -6 3 -9 2 -4 4 -8 5 -10 1 -1 2 -5 3 -8 1 -3 3 -6 4 -7 1 -2
3 -6 4 -9 1 -3 3 -7 4 -9 1 -1 2 -4 3 -6 1 -3 3 -7 5 -11 1 -4 4 -9 4 -11 1
-3 3 -7 5 -9 1 -2 3 -6 3 -9 1 -2 3 -6 4 -8 2 -2 3 -5 4 -6 0 -2 2 -6 3 -9 2
-4 4 -8 5 -10 1 -3 3 -7 4 -10 2 -4 4 -8 5 -11 1 -2 2 -6 4 -8 1 -2 3 -6 4 -8
0 -3 2 -7 3 -8 1 -1 2 -4 3 -6 1 -2 3 -7 5 -11 2 -4 4 -9 5 -11 1 -3 3 -7 4
-9 2 -3 3 -7 4 -10 1 -2 2 -5 3 -7 2 -2 3 -6 4 -8 0 -2 2 -6 4 -8 2 -3 3 -6 3
-6 0 -1 2 -5 4 -10 2 -4 5 -10 6 -13 1 -3 3 -8 5 -11 1 -3 3 -7 3 -9 1 -1 2
-4 4 -6 1 -2 3 -5 3 -7 1 -3 2 -7 4 -9 2 -3 3 -5 3 -6 0 -1 2 -5 3 -8 2 -4 7
-14 10 -21 3 -8 8 -18 10 -21 1 -4 3 -8 3 -9 0 0 1 -3 3 -5 1 -3 3 -6 3 -7 1
-2 3 -7 4 -10 6 -12 11 -23 14 -30 1 -4 3 -7 4 -8 0 -1 2 -4 3 -8 1 -3 3 -7 4
-9 2 -2 3 -5 4 -8 1 -2 2 -6 4 -8 1 -2 3 -6 4 -9 0 -2 2 -7 4 -9 1 -3 3 -8 4
-11 1 -3 3 -7 5 -9 1 -2 3 -6 4 -9 1 -4 2 -7 3 -7 1 0 2 -4 4 -8 1 -4 4 -9 5
-11 1 -1 2 -4 3 -6 0 -1 2 -7 5 -11 2 -5 4 -10 4 -11 0 -1 1 -4 3 -6 2 -3 4
-7 5 -10 0 -3 2 -6 3 -8 1 -1 3 -4 4 -7 1 -4 3 -7 4 -9 0 -1 2 -5 4 -9 1 -3 3
-9 5 -13 2 -3 4 -8 4 -9 1 -2 2 -5 4 -7 1 -2 3 -5 3 -7 1 -3 2 -7 4 -9 2 -2 3
-6 4 -8 1 -2 2 -6 4 -8 1 -3 3 -7 4 -11 2 -4 4 -9 6 -13 2 -3 3 -6 3 -7 0 0 2
-4 4 -9 2 -5 6 -12 8 -16 2 -4 4 -9 4 -10 1 -1 3 -3 5 -4 2 -2 6 -2 41 -2 30
0 38 0 40 1 2 2 1 9 -3 14 -1 2 -3 6 -4 8 -1 2 -2 7 -4 9 -1 2 -3 7 -4 10 -1
3 -3 7 -4 9 -2 2 -3 6 -4 9 -1 3 -3 6 -4 7 -1 2 -3 6 -4 9 -1 3 -3 7 -4 9 -2
2 -3 5 -3 6 -1 1 -3 7 -6 13 -3 6 -5 11 -5 12 0 1 -1 3 -3 6 -1 2 -3 6 -3 8
-1 1 -2 5 -4 7 -1 3 -3 6 -4 9 -1 2 -2 5 -3 7 -2 2 -3 5 -3 6 -1 1 -3 6 -5 10
-2 4 -4 9 -5 12 -1 3 -3 8 -5 12 -2 4 -4 7 -4 8 0 1 -1 3 -3 6 -1 2 -3 6 -4 9
-1 3 -3 7 -4 9 -2 2 -3 4 -3 5 0 1 -2 5 -3 8 -2 4 -5 9 -6 12 -1 3 -3 9 -5 12
-2 4 -4 8 -4 9 0 1 -1 3 -3 6 -1 2 -3 6 -4 9 -1 2 -3 6 -4 9 -2 2 -3 6 -4 8
-1 2 -3 7 -4 9 -2 2 -4 7 -5 9 0 3 -2 7 -4 10 -1 2 -3 7 -4 10 -1 3 -3 6 -4 8
-1 1 -2 4 -3 6 -1 3 -2 6 -4 8 -1 2 -3 7 -4 10 -2 4 -4 8 -4 9 -1 1 -3 6 -4 9
-2 4 -4 8 -5 9 0 2 -2 5 -3 9 -2 3 -4 7 -5 9 -1 1 -2 4 -3 7 -1 2 -2 5 -3 7
-1 2 -3 6 -5 10 -2 4 -5 12 -8 18 -3 6 -7 15 -8 18 -2 4 -4 8 -5 10 -1 1 -2 4
-3 7 0 2 -2 6 -4 8 -2 3 -3 7 -4 9 -1 2 -2 6 -3 7 -1 2 -3 6 -5 10 -1 3 -3 9
-5 12 -2 2 -3 6 -3 8 -1 1 -2 5 -4 7 -1 2 -3 6 -4 9 -1 3 -3 7 -4 9 -2 2 -3 5
-4 8 -1 2 -3 6 -5 10 -1 3 -3 6 -3 7 0 1 -2 6 -4 11 -3 4 -5 9 -5 10 0 1 -1 4
-3 6 -1 3 -3 6 -4 9 -1 2 -2 6 -4 8 -1 2 -3 6 -4 9 -1 2 -2 5 -4 8 -1 2 -3 7
-5 10 -1 4 -3 9 -4 11 -2 3 -3 6 -4 9 -1 2 -2 5 -3 6 -1 2 -3 5 -4 9 -1 3 -3
6 -4 8 -1 1 -3 4 -3 7 -1 3 -3 7 -5 10 -1 3 -3 7 -3 8 -1 2 -4 8 -13 27 -1 3
-4 9 -5 11 0 2 -2 5 -3 6 -1 2 -2 5 -3 8 -1 2 -4 8 -6 12 -2 5 -4 9 -4 10 0 1
-1 3 -3 6 -1 2 -3 7 -5 10 -1 4 -3 8 -4 10 -1 1 -2 4 -3 6 -1 3 -2 6 -4 8 -1
2 -3 6 -4 9 -1 3 -3 8 -4 10 -2 2 -4 7 -5 11 -1 3 -3 7 -4 8 -1 1 -2 4 -3 7
-1 2 -3 6 -4 10 -8 16 -22 45 -22 47 0 0 -2 3 -3 7 -2 4 -4 8 -4 8 0 1 -1 4
-3 6 -1 3 -3 6 -3 7 -1 1 -3 6 -4 10 -2 3 -6 11 -9 17 -2 6 -6 14 -8 18 -1 3
-4 9 -5 12 -1 3 -3 6 -4 8 -1 1 -2 4 -3 6 -1 3 -2 6 -3 8 -2 2 -4 6 -5 9 -1 4
-3 8 -4 10 -2 3 -3 6 -4 9 -1 2 -3 6 -5 10 -1 3 -3 7 -4 10 -1 4 -6 11 -9 12
-1 1 -72 2 -74 1z"/>
<path d="M4845 1133 c-31 0 -33 -1 -35 -2 -1 -2 -1 -80 -1 -559 0 -556 0 -557
2 -559 2 -2 3 -2 33 -2 17 0 33 0 36 -1 4 0 5 0 7 2 2 2 2 2 2 146 0 119 0
144 1 146 2 4 3 5 34 37 11 11 31 31 44 45 13 14 28 29 33 33 4 5 14 16 23 25
34 35 65 67 76 78 6 6 17 18 25 25 7 8 13 14 14 14 4 1 6 0 10 -5 3 -3 10 -12
16 -19 11 -12 16 -19 23 -26 1 -2 7 -8 12 -14 5 -5 11 -12 13 -15 2 -3 6 -7 8
-9 10 -11 36 -41 43 -50 5 -5 15 -17 23 -27 14 -15 35 -39 45 -51 4 -5 7 -9
15 -17 5 -5 17 -19 20 -23 1 -2 11 -13 22 -25 10 -12 26 -31 36 -42 10 -11 19
-21 20 -23 1 -1 4 -5 7 -7 2 -3 9 -12 16 -20 7 -8 15 -16 17 -18 1 -3 10 -13
19 -23 8 -9 18 -20 21 -23 2 -4 15 -18 27 -32 12 -14 26 -30 31 -35 4 -5 10
-12 13 -15 3 -4 7 -8 8 -10 2 -2 6 -6 8 -9 3 -3 5 -6 5 -6 0 -1 2 -2 4 -3 5
-3 5 -3 49 -3 24 0 45 0 45 1 3 1 0 5 -12 20 -8 8 -13 14 -28 32 -2 2 -5 6 -7
8 -2 3 -6 7 -8 10 -3 2 -7 7 -9 10 -3 4 -11 12 -17 19 -6 8 -12 15 -14 17 -2
2 -7 8 -11 13 -5 5 -13 15 -17 20 -5 6 -11 13 -12 14 -2 2 -5 6 -7 9 -3 2 -6
6 -9 9 -6 6 -12 14 -17 20 -2 3 -8 9 -12 14 -5 5 -10 11 -12 14 -1 2 -6 8 -11
13 -4 5 -10 11 -12 14 -6 8 -13 15 -17 20 -2 2 -5 6 -7 8 -3 3 -6 7 -7 8 -2 2
-6 7 -9 11 -4 4 -13 15 -21 24 -8 10 -17 19 -18 22 -2 2 -6 6 -8 9 -3 2 -7 7
-9 11 -3 3 -10 11 -16 18 -7 7 -17 20 -24 28 -8 8 -17 19 -21 24 -5 5 -10 11
-12 14 -2 2 -5 6 -6 7 -2 2 -8 9 -13 16 -17 19 -32 36 -36 41 -2 2 -8 9 -12
15 -5 5 -15 16 -21 24 -7 7 -14 15 -15 17 -2 2 -5 6 -8 9 -2 3 -7 8 -9 11 -2
3 -6 7 -9 10 -4 4 -5 8 -3 12 1 1 6 7 13 14 6 6 24 24 38 40 15 15 33 34 41
41 7 7 17 18 22 23 5 6 17 18 26 27 8 9 24 25 35 36 10 11 24 25 30 32 6 6 22
23 36 37 13 13 25 26 27 28 2 2 13 14 25 26 12 12 27 28 34 35 7 8 14 15 16
17 9 10 44 46 54 56 6 7 21 21 32 33 11 12 28 29 36 37 9 9 17 17 17 19 2 5 4
5 -45 5 -45 0 -45 0 -49 -3 -3 -2 -6 -5 -8 -6 -1 -2 -10 -11 -19 -21 -10 -10
-26 -27 -37 -38 -11 -11 -23 -24 -27 -28 -4 -4 -17 -17 -28 -29 -11 -12 -26
-26 -32 -33 -6 -6 -22 -23 -35 -36 -13 -13 -27 -28 -31 -33 -5 -4 -18 -18 -30
-31 -13 -12 -28 -28 -34 -34 -6 -7 -15 -16 -19 -20 -8 -9 -43 -44 -59 -61 -6
-6 -22 -23 -35 -37 -14 -13 -26 -26 -28 -28 -20 -20 -52 -54 -69 -72 -7 -7
-19 -19 -26 -27 -8 -8 -25 -26 -39 -39 -13 -14 -30 -32 -38 -40 -20 -21 -52
-53 -71 -73 -27 -28 -26 -28 -29 -28 -2 0 -3 1 -3 2 -1 0 -1 161 -1 357 0 354
0 355 -2 357 -1 1 -3 2 -5 2 -2 0 -18 -1 -37 -1z"/>
<path d="M8907 1133 c-1 -1 -2 -2 -3 -4 -1 -3 -1 -1111 0 -1114 1 -2 2 -3 3
-4 1 0 18 0 38 0 33 0 35 1 37 2 1 2 1 80 1 559 0 556 0 557 -2 559 -2 2 -3 2
-34 2 -17 0 -33 0 -35 0 -1 1 -4 1 -5 0z"/>
<path d="M3327 1132 c-1 -1 -2 -2 -3 -3 0 -2 0 -16 0 -33 0 -29 0 -31 1 -33 2
-1 18 -2 214 -2 116 0 216 -1 221 -1 4 -1 15 -2 24 -2 8 -1 19 -2 24 -3 5 0
14 -1 20 -3 5 -1 14 -3 19 -3 5 -1 13 -3 17 -4 4 -2 11 -4 15 -4 4 -1 9 -3 10
-3 1 -1 7 -3 14 -5 6 -2 12 -4 15 -6 2 -1 6 -2 8 -3 3 -1 6 -2 9 -4 2 -2 6 -3
8 -4 2 -1 5 -2 7 -3 1 -2 5 -4 8 -5 12 -7 28 -18 30 -20 0 -1 2 -2 4 -4 5 -3
7 -5 22 -19 11 -11 12 -12 20 -22 7 -10 12 -16 14 -20 1 -3 4 -6 5 -8 2 -2 3
-5 4 -8 1 -2 3 -6 4 -7 1 -2 3 -5 3 -7 1 -2 3 -6 4 -8 2 -2 3 -6 4 -9 1 -3 2
-7 3 -9 1 -2 4 -12 7 -23 5 -19 7 -33 9 -52 0 -5 0 -11 1 -12 3 -30 -1 -82 -9
-112 -2 -8 -4 -16 -4 -17 0 -1 -1 -4 -3 -8 -2 -3 -3 -8 -4 -11 -1 -3 -2 -6 -3
-8 -2 -2 -4 -6 -5 -9 -1 -2 -2 -6 -3 -7 -1 -2 -3 -5 -5 -8 -1 -3 -4 -9 -7 -13
-3 -4 -6 -9 -7 -10 -8 -13 -36 -43 -49 -53 -14 -10 -27 -19 -32 -21 -2 -1 -5
-3 -7 -4 -2 -2 -5 -3 -6 -4 -2 0 -5 -2 -7 -3 -3 -2 -6 -3 -8 -4 -3 -1 -6 -2
-7 -3 -4 -3 -20 -9 -34 -13 -5 -1 -12 -3 -16 -4 -4 -2 -12 -4 -17 -4 -6 -1
-13 -3 -16 -4 -7 -2 -16 -3 -34 -5 -7 -1 -18 -2 -25 -3 -12 -2 -15 -2 -232 -3
-121 0 -221 0 -223 -1 -1 0 -3 -1 -4 -1 -1 -1 -1 -58 -1 -216 0 -118 0 -215 1
-216 1 -4 5 -4 40 -4 35 0 38 0 39 4 1 1 1 82 1 180 0 178 0 178 2 180 3 3 3
3 171 3 172 0 193 1 215 3 7 1 18 2 25 3 15 2 17 1 23 -7 8 -12 11 -17 15 -22
2 -3 6 -8 8 -12 3 -4 7 -9 9 -12 2 -3 5 -7 6 -8 3 -5 4 -6 9 -12 2 -4 6 -9 8
-12 2 -3 4 -7 6 -9 1 -1 3 -4 4 -6 1 -1 4 -5 6 -8 2 -3 6 -8 8 -10 1 -3 5 -9
8 -12 3 -4 7 -10 9 -12 1 -3 5 -8 7 -11 2 -3 6 -8 8 -10 7 -12 18 -26 24 -35
2 -3 6 -8 8 -11 2 -3 4 -6 4 -6 1 0 3 -3 5 -7 2 -3 6 -8 8 -11 2 -3 5 -7 6 -8
1 -2 3 -5 4 -6 2 -2 4 -5 5 -7 1 -2 5 -7 7 -11 5 -6 7 -9 17 -23 7 -9 10 -14
15 -22 3 -3 7 -9 10 -12 2 -4 5 -8 6 -9 1 -2 3 -5 4 -6 1 -2 5 -7 8 -11 15
-22 17 -24 20 -24 2 -1 22 -1 44 -1 47 1 45 0 38 10 -2 3 -6 8 -8 12 -3 4 -7
9 -9 12 -2 3 -6 8 -8 11 -2 3 -4 6 -5 7 0 0 -2 3 -3 5 -1 2 -3 4 -4 6 -1 1 -3
3 -4 5 -1 1 -3 4 -4 7 -6 7 -8 9 -12 15 -2 3 -4 6 -4 6 0 0 -2 3 -4 6 -2 3 -6
8 -8 11 -3 4 -10 13 -17 25 -4 4 -10 13 -16 21 -2 3 -5 7 -6 8 -1 2 -3 5 -4 6
-2 2 -4 5 -5 7 -3 4 -10 15 -16 23 -2 3 -6 8 -9 12 -2 4 -6 9 -8 11 -1 2 -4 6
-6 9 -1 2 -4 6 -5 7 -1 2 -4 5 -5 8 -2 2 -5 6 -7 9 -2 3 -6 8 -8 11 -2 3 -4 6
-4 7 -2 1 -8 10 -12 16 -1 1 -3 4 -4 5 -1 1 -3 4 -4 7 -2 2 -5 6 -7 9 -2 3 -6
8 -9 12 -2 4 -6 9 -8 12 -2 3 -6 8 -9 12 -2 4 -6 9 -8 12 -2 3 -5 7 -7 10 -1
2 -4 5 -6 7 -4 5 -6 10 -5 13 0 2 2 3 7 4 18 6 33 11 37 14 2 1 6 3 9 4 3 0 6
2 8 3 1 1 4 3 7 4 3 1 8 3 10 5 2 1 6 3 7 3 1 1 4 2 6 3 1 2 5 4 9 6 7 4 11 6
17 11 2 2 5 4 5 4 1 0 3 2 5 3 2 2 4 4 5 5 4 2 34 30 42 40 13 14 17 20 21 27
2 3 4 5 4 6 1 0 2 2 3 4 1 3 3 6 5 7 1 2 3 5 4 7 1 3 3 6 4 8 2 2 3 6 4 8 1 2
2 5 4 7 1 2 3 5 3 8 1 3 3 7 4 10 2 3 4 8 5 13 1 4 3 10 5 12 1 2 2 8 3 12 1
4 2 9 3 12 2 4 3 9 4 15 1 5 2 13 2 16 5 24 5 26 5 73 0 41 0 45 -2 56 -1 6
-3 18 -4 25 -1 8 -3 16 -4 20 -2 3 -3 9 -4 13 -1 3 -2 9 -4 13 -2 3 -3 7 -3 8
0 1 -2 5 -4 10 -2 5 -4 11 -6 15 -1 4 -3 8 -4 9 -1 1 -2 5 -3 7 -1 2 -3 6 -5
9 -1 2 -3 5 -4 7 -1 1 -2 3 -3 4 0 1 -2 3 -3 5 -1 2 -4 6 -5 8 -2 3 -6 8 -8
11 -2 4 -6 9 -8 11 -3 3 -6 6 -7 8 -11 13 -35 36 -46 43 -3 3 -6 5 -6 5 0 1
-2 2 -4 3 -2 1 -5 3 -6 4 -1 1 -4 4 -6 5 -5 3 -11 6 -19 12 -2 1 -6 3 -8 4 -2
1 -5 2 -6 4 -2 1 -5 3 -8 4 -2 1 -6 2 -8 4 -1 1 -5 3 -8 4 -3 1 -8 3 -10 4 -3
2 -8 3 -10 4 -2 1 -7 2 -11 4 -4 2 -10 4 -13 4 -4 1 -9 3 -11 4 -2 1 -8 3 -13
4 -4 0 -11 2 -13 3 -3 1 -13 4 -21 5 -9 2 -21 4 -27 5 -12 2 -27 4 -42 5 -5 0
-12 1 -15 1 -9 2 -452 2 -455 1z"/>
<path d="M6268 1132 c-1 -2 -2 -4 -2 -32 0 -17 0 -32 0 -34 1 -2 2 -3 3 -4 1
-1 116 -1 359 -1 357 0 357 0 360 2 2 2 2 2 2 34 0 31 0 32 -2 34 -2 2 -3 2
-360 2 -307 0 -358 0 -360 -1z"/>
<path d="M7484 1131 c-2 -2 -2 -2 -3 -33 0 -17 1 -31 1 -33 1 -1 2 -2 3 -3 1
-1 60 -1 198 -1 196 0 196 0 199 -3 3 -2 3 -2 3 -522 0 -387 0 -520 1 -521 1
-2 2 -3 3 -4 1 0 17 0 36 0 36 0 38 0 39 4 1 1 1 235 1 520 0 460 0 518 2 521
0 2 2 3 3 4 1 1 65 1 198 1 196 0 196 0 198 2 2 3 2 3 2 34 0 30 -1 32 -2 34
-2 2 -2 2 -441 2 -431 0 -439 0 -441 -2z"/>
<path d="M6268 615 c-1 0 -2 -2 -2 -3 0 -1 0 -16 0 -33 0 -29 1 -31 2 -33 2
-1 53 -1 360 -1 357 0 358 0 360 2 2 2 2 3 2 31 0 37 1 35 -2 37 -1 1 -68 1
-359 1 -197 0 -359 -1 -361 -1z"/>
<path d="M6272 83 c-1 0 -3 -1 -4 -2 -2 -2 -2 -2 -2 -34 0 -31 0 -32 2 -34 2
-2 3 -2 360 -2 357 0 358 0 360 2 2 2 2 3 2 34 0 32 0 32 -2 34 -1 1 -3 2 -3
2 -83 0 -712 0 -713 0z"/>
</g>
</svg>